<svg xmlns="http://www.w3.org/2000/svg" viewBox="0 0 512 512">
  <defs>
    <linearGradient id="bg" x1="0%" y1="0%" x2="100%" y2="100%">
      <stop offset="0%" stop-color="#3b82f6" />
      <stop offset="100%" stop-color="#1d4ed8" />
    </linearGradient>
    <filter id="shadow" x="-10%" y="-10%" width="120%" height="120%">
      <feDropShadow dx="0" dy="10" stdDeviation="15" flood-color="#000000" flood-opacity="0.2"/>
    </filter>
  </defs>
  <rect width="512" height="512" rx="112" fill="url(#bg)"/>
  <path d="M256 120c-88.3 0-160 64.5-160 144 0 44.7 22.8 84.5 58.2 111.4v60.6c0 8.8 7.2 16 16 16 4.3 0 8.4-1.7 11.4-4.7l46.4-46.4c9.1 1.2 18.4 1.9 28 1.9 88.3 0 160-64.5 160-144S344.3 120 256 120z" fill="#ffffff" filter="url(#shadow)"/>
  <circle cx="180" cy="264" r="16" fill="#3b82f6"/>
  <circle cx="256" cy="264" r="16" fill="#3b82f6"/>
  <circle cx="332" cy="264" r="16" fill="#3b82f6"/>
</svg>
